<svg xmlns="http://www.w3.org/2000/svg" version="1.1" width="512px" height="512px" style="shape-rendering:geometricPrecision; text-rendering:geometricPrecision; image-rendering:optimizeQuality; fill-rule:evenodd; clip-rule:evenodd" xmlns:xlink="http://www.w3.org/1999/xlink">
<g><path style="opacity:0.998" fill="#05b0ee" d="M 249.5,5.5 C 249.5,42.8333 249.5,80.1667 249.5,117.5C 239.407,118.678 229.407,120.344 219.5,122.5C 217.835,84.6777 216.835,46.6777 216.5,8.5C 227.243,6.26022 238.243,5.26022 249.5,5.5 Z"/></g>
<g><path style="opacity:0.997" fill="#01abeb" d="M 249.5,5.5 C 270.268,4.54366 290.601,6.54366 310.5,11.5C 310.173,50.2393 310.506,88.9059 311.5,127.5C 291.506,120.279 270.839,116.946 249.5,117.5C 249.5,80.1667 249.5,42.8333 249.5,5.5 Z"/></g>
<g><path style="opacity:0.997" fill="#0cb3ef" d="M 216.5,8.5 C 216.835,46.6777 217.835,84.6777 219.5,122.5C 202.25,127.458 186.25,135.124 171.5,145.5C 170.833,103.833 170.167,62.1667 169.5,20.5C 184.55,14.4871 200.216,10.4871 216.5,8.5 Z"/></g>
<g><path style="opacity:0.998" fill="#01a7e8" d="M 310.5,11.5 C 319.237,12.7646 327.57,15.0979 335.5,18.5C 336.494,59.0942 336.827,99.7609 336.5,140.5C 328.607,135.386 320.274,131.053 311.5,127.5C 310.506,88.9059 310.173,50.2393 310.5,11.5 Z"/></g>
<g><path style="opacity:0.997" fill="#00a4e6" d="M 335.5,18.5 C 347.97,21.7631 359.637,26.7631 370.5,33.5C 370.832,79.3364 370.499,125.003 369.5,170.5C 368.363,169.211 367.03,168.211 365.5,167.5C 356.763,157.427 347.096,148.427 336.5,140.5C 336.827,99.7609 336.494,59.0942 335.5,18.5 Z"/></g>
<g><path style="opacity:0.998" fill="#12b6ef" d="M 169.5,20.5 C 170.167,62.1667 170.833,103.833 171.5,145.5C 167.693,149.135 163.693,152.635 159.5,156C 155.968,160.36 152.301,164.527 148.5,168.5C 147.501,122.336 147.168,76.003 147.5,29.5C 154.519,25.7164 161.852,22.7164 169.5,20.5 Z"/></g>
<g><path style="opacity:0.998" fill="#17b9f0" d="M 147.5,29.5 C 147.168,76.003 147.501,122.336 148.5,168.5C 119.317,208.605 111.817,252.605 126,300.5C 131.179,315.864 138.679,329.864 148.5,342.5C 147.833,388.5 147.167,434.5 146.5,480.5C 134.171,475.343 122.838,468.676 112.5,460.5C 113.833,323.833 113.833,187.167 112.5,50.5C 123.33,42.2456 134.997,35.2456 147.5,29.5 Z"/></g>
<g><path style="opacity:0.997" fill="#009fe2" d="M 370.5,33.5 C 392.976,44.4024 412.976,58.7357 430.5,76.5C 430.832,128.003 430.499,179.336 429.5,230.5C 427.167,228.5 424.833,226.5 422.5,224.5C 404.833,206.5 387.167,188.5 369.5,170.5C 370.499,125.003 370.832,79.3364 370.5,33.5 Z"/></g>
<g><path style="opacity:0.999" fill="#19bbf1" d="M 112.5,50.5 C 113.833,187.167 113.833,323.833 112.5,460.5C 108.268,458.6 104.601,455.933 101.5,452.5C 102.5,321.001 102.833,189.334 102.5,57.5C 105.275,54.3954 108.608,52.0621 112.5,50.5 Z"/></g>
<g><path style="opacity:0.998" fill="#1cbcf1" d="M 102.5,57.5 C 102.833,189.334 102.5,321.001 101.5,452.5C 90.3009,444.975 80.3009,435.975 71.5,425.5C 72.8319,312.264 72.8319,198.931 71.5,85.5C 80.613,74.7156 90.9463,65.3822 102.5,57.5 Z"/></g>
<g><path style="opacity:0.996" fill="#0099dd" d="M 430.5,76.5 C 486.006,132.153 510.839,199.487 505,278.5C 504.275,287.767 502.775,296.767 500.5,305.5C 500.657,304.127 500.49,302.793 500,301.5C 493.298,294.631 486.465,287.964 479.5,281.5C 467.5,268.833 455.167,256.5 442.5,244.5C 438.167,239.833 433.833,235.167 429.5,230.5C 430.499,179.336 430.832,128.003 430.5,76.5 Z"/></g>
<g><path style="opacity:0.997" fill="#22bff2" d="M 71.5,85.5 C 72.8319,198.931 72.8319,312.264 71.5,425.5C 57.8891,410.956 46.2224,394.956 36.5,377.5C 37.168,296.098 37.8347,214.598 38.5,133C 38.2716,132.601 37.9382,132.435 37.5,132.5C 46.6322,115.233 57.9655,99.5668 71.5,85.5 Z"/></g>
<g><path style="opacity:1" fill="#fefefe" d="M 249.5,117.5 C 270.839,116.946 291.506,120.279 311.5,127.5C 320.274,131.053 328.607,135.386 336.5,140.5C 347.096,148.427 356.763,157.427 365.5,167.5C 375.358,181.551 382.858,196.885 388,213.5C 389.798,218.689 390.631,224.022 390.5,229.5C 366.167,229.5 341.833,229.5 317.5,229.5C 316.401,223.301 313.734,217.968 309.5,213.5C 305.235,206.233 299.568,200.233 292.5,195.5C 291.035,194.263 289.368,193.263 287.5,192.5C 258.654,179.146 233.154,183.813 211,206.5C 199.622,220.801 194.122,237.134 194.5,255.5C 194.233,261.978 194.9,268.311 196.5,274.5C 198.261,283.481 201.927,291.481 207.5,298.5C 210.113,304.113 214.113,308.446 219.5,311.5C 225.607,317.557 232.94,321.557 241.5,323.5C 274.321,330.337 298.488,319.004 314,289.5C 315.477,285.57 316.644,281.57 317.5,277.5C 328.833,277.5 340.167,277.5 351.5,277.5C 365.209,276.852 378.542,277.519 391.5,279.5C 389.638,289.28 387.305,298.947 384.5,308.5C 372.327,340.344 350.994,364.01 320.5,379.5C 303.614,387.138 285.948,391.805 267.5,393.5C 230.275,395.199 196.941,384.866 167.5,362.5C 160.492,356.491 154.158,349.825 148.5,342.5C 138.679,329.864 131.179,315.864 126,300.5C 111.817,252.605 119.317,208.605 148.5,168.5C 152.301,164.527 155.968,160.36 159.5,156C 163.693,152.635 167.693,149.135 171.5,145.5C 186.25,135.124 202.25,127.458 219.5,122.5C 229.407,120.344 239.407,118.678 249.5,117.5 Z"/></g>
<g><path style="opacity:0.988" fill="#27c2f2" d="M 37.5,132.5 C 37.9382,132.435 38.2716,132.601 38.5,133C 37.8347,214.598 37.168,296.098 36.5,377.5C 3.69622,316.1 -3.47045,251.766 15,184.5C 20.2865,166.118 27.7865,148.784 37.5,132.5 Z"/></g>
<g><path style="opacity:1" fill="#056f96" d="M 287.5,192.5 C 285.539,194.963 283.372,197.297 281,199.5C 280.667,198.5 280.333,197.5 280,196.5C 277,199.5 274,202.5 271,205.5C 270.667,204.167 270.333,202.833 270,201.5C 267,204.5 264,207.5 261,210.5C 260.667,209.5 260.333,208.5 260,207.5C 256.667,210.833 253.333,214.167 250,217.5C 249.667,216.5 249.333,215.5 249,214.5C 245.667,217.833 242.333,221.167 239,224.5C 238.667,223.167 238.333,221.833 238,220.5C 230.667,227.833 223.333,235.167 216,242.5C 215.667,241.5 215.333,240.5 215,239.5C 211.667,242.833 208.333,246.167 205,249.5C 204.667,248.5 204.333,247.5 204,246.5C 200.964,249.704 197.797,252.704 194.5,255.5C 194.122,237.134 199.622,220.801 211,206.5C 233.154,183.813 258.654,179.146 287.5,192.5 Z"/></g>
<g><path style="opacity:1" fill="#04729a" d="M 287.5,192.5 C 289.368,193.263 291.035,194.263 292.5,195.5C 287.263,202.243 281.429,208.577 275,214.5C 274.667,213.167 274.333,211.833 274,210.5C 270,214.5 266,218.5 262,222.5C 261.667,221.5 261.333,220.5 261,219.5C 251,229.5 241,239.5 231,249.5C 230.667,248.5 230.333,247.5 230,246.5C 220.333,256.167 210.667,265.833 201,275.5C 200.667,274.167 200.333,272.833 200,271.5C 198.961,272.71 197.794,273.71 196.5,274.5C 194.9,268.311 194.233,261.978 194.5,255.5C 197.797,252.704 200.964,249.704 204,246.5C 204.333,247.5 204.667,248.5 205,249.5C 208.333,246.167 211.667,242.833 215,239.5C 215.333,240.5 215.667,241.5 216,242.5C 223.333,235.167 230.667,227.833 238,220.5C 238.333,221.833 238.667,223.167 239,224.5C 242.333,221.167 245.667,217.833 249,214.5C 249.333,215.5 249.667,216.5 250,217.5C 253.333,214.167 256.667,210.833 260,207.5C 260.333,208.5 260.667,209.5 261,210.5C 264,207.5 267,204.5 270,201.5C 270.333,202.833 270.667,204.167 271,205.5C 274,202.5 277,199.5 280,196.5C 280.333,197.5 280.667,198.5 281,199.5C 283.372,197.297 285.539,194.963 287.5,192.5 Z"/></g>
<g><path style="opacity:1" fill="#02759f" d="M 292.5,195.5 C 299.568,200.233 305.235,206.233 309.5,213.5C 306.538,216.964 303.371,220.297 300,223.5C 299.667,222.5 299.333,221.5 299,220.5C 295,224.5 291,228.5 287,232.5C 286.667,231.167 286.333,229.833 286,228.5C 282.333,232.167 278.667,235.833 275,239.5C 274.667,238.5 274.333,237.5 274,236.5C 259.667,250.833 245.333,265.167 231,279.5C 230.667,278.5 230.333,277.5 230,276.5C 222.632,284.036 215.132,291.369 207.5,298.5C 201.927,291.481 198.261,283.481 196.5,274.5C 197.794,273.71 198.961,272.71 200,271.5C 200.333,272.833 200.667,274.167 201,275.5C 210.667,265.833 220.333,256.167 230,246.5C 230.333,247.5 230.667,248.5 231,249.5C 241,239.5 251,229.5 261,219.5C 261.333,220.5 261.667,221.5 262,222.5C 266,218.5 270,214.5 274,210.5C 274.333,211.833 274.667,213.167 275,214.5C 281.429,208.577 287.263,202.243 292.5,195.5 Z"/></g>
<g><path style="opacity:1" fill="#027fb1" d="M 365.5,167.5 C 367.03,168.211 368.363,169.211 369.5,170.5C 387.167,188.5 404.833,206.5 422.5,224.5C 419.604,228.905 416.104,232.905 412,236.5C 411.667,234.5 411.333,232.5 411,230.5C 407.333,234.167 403.667,237.833 400,241.5C 399.667,240.5 399.333,239.5 399,238.5C 395,242.5 391,246.5 387,250.5C 386.667,249.5 386.333,248.5 386,247.5C 378,255.5 370,263.5 362,271.5C 361.667,270.167 361.333,268.833 361,267.5C 357.629,270.703 354.462,274.036 351.5,277.5C 340.167,277.5 328.833,277.5 317.5,277.5C 316.644,281.57 315.477,285.57 314,289.5C 298.488,319.004 274.321,330.337 241.5,323.5C 247.797,316.702 254.297,310.035 261,303.5C 261.333,304.5 261.667,305.5 262,306.5C 266,302.5 270,298.5 274,294.5C 274.333,295.5 274.667,296.5 275,297.5C 278.667,293.833 282.333,290.167 286,286.5C 286.333,287.833 286.667,289.167 287,290.5C 291,286.5 295,282.5 299,278.5C 299.333,279.5 299.667,280.5 300,281.5C 308,273.5 316,265.5 324,257.5C 324.333,258.5 324.667,259.5 325,260.5C 328.667,256.833 332.333,253.167 336,249.5C 336.333,250.833 336.667,252.167 337,253.5C 341,249.5 345,245.5 349,241.5C 349.333,242.5 349.667,243.5 350,244.5C 353.667,240.833 357.333,237.167 361,233.5C 361.333,234.5 361.667,235.5 362,236.5C 363.833,234.667 365.667,232.833 367.5,231C 354.838,230.5 342.171,230.333 329.5,230.5C 325.298,230.817 321.298,230.483 317.5,229.5C 341.833,229.5 366.167,229.5 390.5,229.5C 390.631,224.022 389.798,218.689 388,213.5C 382.858,196.885 375.358,181.551 365.5,167.5 Z"/></g>
<g><path style="opacity:1" fill="#0279a5" d="M 309.5,213.5 C 313.734,217.968 316.401,223.301 317.5,229.5C 321.298,230.483 325.298,230.817 329.5,230.5C 328.207,232.296 326.707,233.963 325,235.5C 324.667,234.167 324.333,232.833 324,231.5C 320,235.5 316,239.5 312,243.5C 311.667,242.5 311.333,241.5 311,240.5C 307.333,244.167 303.667,247.833 300,251.5C 299.667,250.5 299.333,249.5 299,248.5C 291,256.5 283,264.5 275,272.5C 274.667,271.167 274.333,269.833 274,268.5C 270,272.5 266,276.5 262,280.5C 261.667,279.5 261.333,278.5 261,277.5C 250,288.5 239,299.5 228,310.5C 227.667,308.833 227.333,307.167 227,305.5C 224.894,308.118 222.394,310.118 219.5,311.5C 214.113,308.446 210.113,304.113 207.5,298.5C 215.132,291.369 222.632,284.036 230,276.5C 230.333,277.5 230.667,278.5 231,279.5C 245.333,265.167 259.667,250.833 274,236.5C 274.333,237.5 274.667,238.5 275,239.5C 278.667,235.833 282.333,232.167 286,228.5C 286.333,229.833 286.667,231.167 287,232.5C 291,228.5 295,224.5 299,220.5C 299.333,221.5 299.667,222.5 300,223.5C 303.371,220.297 306.538,216.964 309.5,213.5 Z"/></g>
<g><path style="opacity:1" fill="#0081b8" d="M 422.5,224.5 C 424.833,226.5 427.167,228.5 429.5,230.5C 433.833,235.167 438.167,239.833 442.5,244.5C 440.873,246.63 439.04,248.63 437,250.5C 436.667,249.167 436.333,247.833 436,246.5C 432.333,250.167 428.667,253.833 425,257.5C 424.667,256.5 424.333,255.5 424,254.5C 420,258.5 416,262.5 412,266.5C 411.667,265.5 411.333,264.5 411,263.5C 407.333,267.167 403.667,270.833 400,274.5C 399.667,273.167 399.333,271.833 399,270.5C 395.854,273.129 393.354,276.129 391.5,279.5C 378.542,277.519 365.209,276.852 351.5,277.5C 354.462,274.036 357.629,270.703 361,267.5C 361.333,268.833 361.667,270.167 362,271.5C 370,263.5 378,255.5 386,247.5C 386.333,248.5 386.667,249.5 387,250.5C 391,246.5 395,242.5 399,238.5C 399.333,239.5 399.667,240.5 400,241.5C 403.667,237.833 407.333,234.167 411,230.5C 411.333,232.5 411.667,234.5 412,236.5C 416.104,232.905 419.604,228.905 422.5,224.5 Z"/></g>
<g><path style="opacity:1" fill="#007cab" d="M 329.5,230.5 C 342.171,230.333 354.838,230.5 367.5,231C 365.667,232.833 363.833,234.667 362,236.5C 361.667,235.5 361.333,234.5 361,233.5C 357.333,237.167 353.667,240.833 350,244.5C 349.667,243.5 349.333,242.5 349,241.5C 345,245.5 341,249.5 337,253.5C 336.667,252.167 336.333,250.833 336,249.5C 332.333,253.167 328.667,256.833 325,260.5C 324.667,259.5 324.333,258.5 324,257.5C 316,265.5 308,273.5 300,281.5C 299.667,280.5 299.333,279.5 299,278.5C 295,282.5 291,286.5 287,290.5C 286.667,289.167 286.333,287.833 286,286.5C 282.333,290.167 278.667,293.833 275,297.5C 274.667,296.5 274.333,295.5 274,294.5C 270,298.5 266,302.5 262,306.5C 261.667,305.5 261.333,304.5 261,303.5C 254.297,310.035 247.797,316.702 241.5,323.5C 232.94,321.557 225.607,317.557 219.5,311.5C 222.394,310.118 224.894,308.118 227,305.5C 227.333,307.167 227.667,308.833 228,310.5C 239,299.5 250,288.5 261,277.5C 261.333,278.5 261.667,279.5 262,280.5C 266,276.5 270,272.5 274,268.5C 274.333,269.833 274.667,271.167 275,272.5C 283,264.5 291,256.5 299,248.5C 299.333,249.5 299.667,250.5 300,251.5C 303.667,247.833 307.333,244.167 311,240.5C 311.333,241.5 311.667,242.5 312,243.5C 316,239.5 320,235.5 324,231.5C 324.333,232.833 324.667,234.167 325,235.5C 326.707,233.963 328.207,232.296 329.5,230.5 Z"/></g>
<g><path style="opacity:1" fill="#0286c0" d="M 442.5,244.5 C 455.167,256.5 467.5,268.833 479.5,281.5C 478.627,283.886 477.127,285.886 475,287.5C 474.667,286.5 474.333,285.5 474,284.5C 470,288.5 466,292.5 462,296.5C 461.809,294.292 461.309,292.292 460.5,290.5C 460.664,287.813 460.497,285.146 460,282.5C 457,285.5 454,288.5 451,291.5C 450.667,290.5 450.333,289.5 450,288.5C 447,291.5 444,294.5 441,297.5C 440.667,295.167 440.333,292.833 440,290.5C 437,293.5 434,296.5 431,299.5C 430.667,298.167 430.333,296.833 430,295.5C 427,298.5 424,301.5 421,304.5C 420.667,302.167 420.333,299.833 420,297.5C 417,300.5 414,303.5 411,306.5C 410.667,305.167 410.333,303.833 410,302.5C 407,305.5 404,308.5 401,311.5C 400.667,310.5 400.333,309.5 400,308.5C 397,311.5 394,314.5 391,317.5C 390.667,314.833 390.333,312.167 390,309.5C 389,310.5 388,311.5 387,312.5C 386.562,310.358 385.728,309.025 384.5,308.5C 387.305,298.947 389.638,289.28 391.5,279.5C 393.354,276.129 395.854,273.129 399,270.5C 399.333,271.833 399.667,273.167 400,274.5C 403.667,270.833 407.333,267.167 411,263.5C 411.333,264.5 411.667,265.5 412,266.5C 416,262.5 420,258.5 424,254.5C 424.333,255.5 424.667,256.5 425,257.5C 428.667,253.833 432.333,250.167 436,246.5C 436.333,247.833 436.667,249.167 437,250.5C 439.04,248.63 440.873,246.63 442.5,244.5 Z"/></g>
<g><path style="opacity:1" fill="#008dcb" d="M 479.5,281.5 C 486.465,287.964 493.298,294.631 500,301.5C 500.49,302.793 500.657,304.127 500.5,305.5C 500.58,308.781 499.913,311.781 498.5,314.5C 496.233,317.271 493.733,319.938 491,322.5C 490.667,321.5 490.333,320.5 490,319.5C 487,322.5 484,325.5 481,328.5C 480.667,326.167 480.333,323.833 480,321.5C 477,324.5 474,327.5 471,330.5C 470.667,329.167 470.333,327.833 470,326.5C 467,329.5 464,332.5 461,335.5C 460.667,333.167 460.333,330.833 460,328.5C 456.667,331.833 453.333,335.167 450,338.5C 449.667,337.167 449.333,335.833 449,334.5C 446.297,337.371 443.464,340.038 440.5,342.5C 440.663,340.143 440.497,337.81 440,335.5C 437,338.5 434,341.5 431,344.5C 430.667,343.167 430.333,341.833 430,340.5C 427,343.5 424,346.5 421,349.5C 420.667,347.167 420.333,344.833 420,342.5C 417,345.5 414,348.5 411,351.5C 410.667,350.5 410.333,349.5 410,348.5C 407,351.5 404,354.5 401,357.5C 400.667,354.167 400.333,350.833 400,347.5C 397,350.5 394,353.5 391,356.5C 390.667,355.167 390.333,353.833 390,352.5C 387,355.5 384,358.5 381,361.5C 380.667,359.167 380.333,356.833 380,354.5C 377,357.5 374,360.5 371,363.5C 370.667,362.5 370.333,361.5 370,360.5C 367,363.5 364,366.5 361,369.5C 360.667,368.167 360.333,366.833 360,365.5C 357,368.5 354,371.5 351,374.5C 350.503,372.19 350.337,369.857 350.5,367.5C 353.796,363.702 357.296,360.036 361,356.5C 361.333,357.5 361.667,358.5 362,359.5C 366,355.5 370,351.5 374,347.5C 374.333,348.5 374.667,349.5 375,350.5C 378.667,346.833 382.333,343.167 386,339.5C 386.333,340.833 386.667,342.167 387,343.5C 391,339.5 395,335.5 399,331.5C 399.333,332.5 399.667,333.5 400,334.5C 403.667,330.833 407.333,327.167 411,323.5C 411.333,324.5 411.667,325.5 412,326.5C 416,322.5 420,318.5 424,314.5C 424.333,315.5 424.667,316.5 425,317.5C 428.667,313.833 432.333,310.167 436,306.5C 436.333,307.833 436.667,309.167 437,310.5C 441,306.5 445,302.5 449,298.5C 449.333,299.5 449.667,300.5 450,301.5C 453.704,297.964 457.204,294.298 460.5,290.5C 461.309,292.292 461.809,294.292 462,296.5C 466,292.5 470,288.5 474,284.5C 474.333,285.5 474.667,286.5 475,287.5C 477.127,285.886 478.627,283.886 479.5,281.5 Z"/></g>
<g><path style="opacity:1" fill="#048cc6" d="M 460.5,290.5 C 457.204,294.298 453.704,297.964 450,301.5C 449.667,300.5 449.333,299.5 449,298.5C 445,302.5 441,306.5 437,310.5C 436.667,309.167 436.333,307.833 436,306.5C 432.333,310.167 428.667,313.833 425,317.5C 424.667,316.5 424.333,315.5 424,314.5C 420,318.5 416,322.5 412,326.5C 411.667,325.5 411.333,324.5 411,323.5C 407.333,327.167 403.667,330.833 400,334.5C 399.667,333.5 399.333,332.5 399,331.5C 395,335.5 391,339.5 387,343.5C 386.667,342.167 386.333,340.833 386,339.5C 382.333,343.167 378.667,346.833 375,350.5C 374.667,349.5 374.333,348.5 374,347.5C 370,351.5 366,355.5 362,359.5C 361.667,358.5 361.333,357.5 361,356.5C 357.296,360.036 353.796,363.702 350.5,367.5C 349.71,366.391 349.21,365.058 349,363.5C 345,367.5 341,371.5 337,375.5C 336.667,374.5 336.333,373.5 336,372.5C 332.333,376.167 328.667,379.833 325,383.5C 324.667,382.5 324.333,381.5 324,380.5C 322.961,381.71 321.794,382.71 320.5,383.5C 320.5,382.167 320.5,380.833 320.5,379.5C 350.994,364.01 372.327,340.344 384.5,308.5C 385.728,309.025 386.562,310.358 387,312.5C 388,311.5 389,310.5 390,309.5C 390.333,312.167 390.667,314.833 391,317.5C 394,314.5 397,311.5 400,308.5C 400.333,309.5 400.667,310.5 401,311.5C 404,308.5 407,305.5 410,302.5C 410.333,303.833 410.667,305.167 411,306.5C 414,303.5 417,300.5 420,297.5C 420.333,299.833 420.667,302.167 421,304.5C 424,301.5 427,298.5 430,295.5C 430.333,296.833 430.667,298.167 431,299.5C 434,296.5 437,293.5 440,290.5C 440.333,292.833 440.667,295.167 441,297.5C 444,294.5 447,291.5 450,288.5C 450.333,289.5 450.667,290.5 451,291.5C 454,288.5 457,285.5 460,282.5C 460.497,285.146 460.664,287.813 460.5,290.5 Z"/></g>
<g><path style="opacity:0.999" fill="#0092d1" d="M 498.5,314.5 C 497.349,322.943 495.015,330.943 491.5,338.5C 490.264,340.611 488.764,342.611 487,344.5C 486.667,343.167 486.333,341.833 486,340.5C 482.333,344.167 478.667,347.833 475,351.5C 474.667,350.5 474.333,349.5 474,348.5C 470,352.5 466,356.5 462,360.5C 461.667,359.5 461.333,358.5 461,357.5C 457.333,361.167 453.667,364.833 450,368.5C 449.667,365.833 449.333,363.167 449,360.5C 445,364.5 441,368.5 437,372.5C 436.667,371.5 436.333,370.5 436,369.5C 432.333,373.167 428.667,376.833 425,380.5C 424.667,379.5 424.333,378.5 424,377.5C 420,381.5 416,385.5 412,389.5C 411.917,387.494 411.417,386.494 410.5,386.5C 407.203,389.296 404.036,392.296 401,395.5C 400.667,394.5 400.333,393.5 400,392.5C 396.964,395.704 393.797,398.704 390.5,401.5C 390.664,398.813 390.497,396.146 390,393.5C 387,396.5 384,399.5 381,402.5C 380.667,401.5 380.333,400.5 380,399.5C 377,402.5 374,405.5 371,408.5C 370.667,405.833 370.333,403.167 370,400.5C 367,403.5 364,406.5 361,409.5C 360.667,408.5 360.333,407.5 360,406.5C 357,409.5 354,412.5 351,415.5C 350.667,414.5 350.333,413.5 350,412.5C 347,415.5 344,418.5 341,421.5C 340.667,418.167 340.333,414.833 340,411.5C 337,414.5 334,417.5 331,420.5C 330.667,419.5 330.333,418.5 330,417.5C 327,420.5 324,423.5 321,426.5C 320.667,423.833 320.333,421.167 320,418.5C 317,421.5 314,424.5 311,427.5C 310.517,426.552 310.351,425.552 310.5,424.5C 314.797,419.702 319.297,415.035 324,410.5C 324.333,411.5 324.667,412.5 325,413.5C 328.667,409.833 332.333,406.167 336,402.5C 336.333,403.5 336.667,404.5 337,405.5C 341,401.5 345,397.5 349,393.5C 349.333,394.833 349.667,396.167 350,397.5C 353.667,393.833 357.333,390.167 361,386.5C 361.333,387.5 361.667,388.5 362,389.5C 366,385.5 370,381.5 374,377.5C 374.333,379.5 374.667,381.5 375,383.5C 378.667,379.833 382.333,376.167 386,372.5C 386.333,373.5 386.667,374.5 387,375.5C 391,371.5 395,367.5 399,363.5C 399.333,364.5 399.667,365.5 400,366.5C 403.667,362.833 407.333,359.167 411,355.5C 411.333,358.167 411.667,360.833 412,363.5C 416,359.5 420,355.5 424,351.5C 424.333,352.5 424.667,353.5 425,354.5C 428.667,350.833 432.333,347.167 436,343.5C 436.333,344.5 436.667,345.5 437,346.5C 438.376,345.295 439.542,343.962 440.5,342.5C 443.464,340.038 446.297,337.371 449,334.5C 449.333,335.833 449.667,337.167 450,338.5C 453.333,335.167 456.667,331.833 460,328.5C 460.333,330.833 460.667,333.167 461,335.5C 464,332.5 467,329.5 470,326.5C 470.333,327.833 470.667,329.167 471,330.5C 474,327.5 477,324.5 480,321.5C 480.333,323.833 480.667,326.167 481,328.5C 484,325.5 487,322.5 490,319.5C 490.333,320.5 490.667,321.5 491,322.5C 493.733,319.938 496.233,317.271 498.5,314.5 Z"/></g>
<g><path style="opacity:1" fill="#0092cb" d="M 440.5,342.5 C 439.542,343.962 438.376,345.295 437,346.5C 436.667,345.5 436.333,344.5 436,343.5C 432.333,347.167 428.667,350.833 425,354.5C 424.667,353.5 424.333,352.5 424,351.5C 420,355.5 416,359.5 412,363.5C 411.667,360.833 411.333,358.167 411,355.5C 407.333,359.167 403.667,362.833 400,366.5C 399.667,365.5 399.333,364.5 399,363.5C 395,367.5 391,371.5 387,375.5C 386.667,374.5 386.333,373.5 386,372.5C 382.333,376.167 378.667,379.833 375,383.5C 374.667,381.5 374.333,379.5 374,377.5C 370,381.5 366,385.5 362,389.5C 361.667,388.5 361.333,387.5 361,386.5C 357.333,390.167 353.667,393.833 350,397.5C 349.667,396.167 349.333,394.833 349,393.5C 345,397.5 341,401.5 337,405.5C 336.667,404.5 336.333,403.5 336,402.5C 332.333,406.167 328.667,409.833 325,413.5C 324.667,412.5 324.333,411.5 324,410.5C 319.297,415.035 314.797,419.702 310.5,424.5C 307.203,427.296 304.036,430.296 301,433.5C 300.667,432.5 300.333,431.5 300,430.5C 297,433.5 294,436.5 291,439.5C 290.667,436.833 290.333,434.167 290,431.5C 287,434.5 284,437.5 281,440.5C 280.667,439.5 280.333,438.5 280,437.5C 277,440.5 274,443.5 271,446.5C 270.667,445.167 270.333,443.833 270,442.5C 267,445.5 264,448.5 261,451.5C 260.667,450.5 260.333,449.5 260,448.5C 258.961,449.71 257.794,450.71 256.5,451.5C 254.167,449.5 251.833,447.5 249.5,445.5C 247.5,443.167 245.5,440.833 243.5,438.5C 249.465,433.036 255.298,427.37 261,421.5C 261.333,422.833 261.667,424.167 262,425.5C 266,421.5 270,417.5 274,413.5C 274.333,414.5 274.667,415.5 275,416.5C 278.667,412.833 282.333,409.167 286,405.5C 286.333,406.5 286.667,407.5 287,408.5C 291,404.5 295,400.5 299,396.5C 299.333,397.5 299.667,398.5 300,399.5C 303.667,395.833 307.333,392.167 311,388.5C 311.333,389.833 311.667,391.167 312,392.5C 315.038,389.631 317.871,386.631 320.5,383.5C 321.794,382.71 322.961,381.71 324,380.5C 324.333,381.5 324.667,382.5 325,383.5C 328.667,379.833 332.333,376.167 336,372.5C 336.333,373.5 336.667,374.5 337,375.5C 341,371.5 345,367.5 349,363.5C 349.21,365.058 349.71,366.391 350.5,367.5C 350.337,369.857 350.503,372.19 351,374.5C 354,371.5 357,368.5 360,365.5C 360.333,366.833 360.667,368.167 361,369.5C 364,366.5 367,363.5 370,360.5C 370.333,361.5 370.667,362.5 371,363.5C 374,360.5 377,357.5 380,354.5C 380.333,356.833 380.667,359.167 381,361.5C 384,358.5 387,355.5 390,352.5C 390.333,353.833 390.667,355.167 391,356.5C 394,353.5 397,350.5 400,347.5C 400.333,350.833 400.667,354.167 401,357.5C 404,354.5 407,351.5 410,348.5C 410.333,349.5 410.667,350.5 411,351.5C 414,348.5 417,345.5 420,342.5C 420.333,344.833 420.667,347.167 421,349.5C 424,346.5 427,343.5 430,340.5C 430.333,341.833 430.667,343.167 431,344.5C 434,341.5 437,338.5 440,335.5C 440.497,337.81 440.663,340.143 440.5,342.5 Z"/></g>
<g><path style="opacity:0.994" fill="#0094d6" d="M 491.5,338.5 C 488.987,347.721 485.32,356.388 480.5,364.5C 477.203,367.296 474.036,370.296 471,373.5C 470.667,372.167 470.333,370.833 470,369.5C 467,372.5 464,375.5 461,378.5C 460.667,376.167 460.333,373.833 460,371.5C 457,374.5 454,377.5 451,380.5C 450.667,377.833 450.333,375.167 450,372.5C 447,375.5 444,378.5 441,381.5C 440.667,380.5 440.333,379.5 440,378.5C 437,381.5 434,384.5 431,387.5C 430.667,384.833 430.333,382.167 430,379.5C 427,382.5 424,385.5 421,388.5C 420.667,387.5 420.333,386.5 420,385.5C 417,388.5 414,391.5 411,394.5C 410.503,391.854 410.336,389.187 410.5,386.5C 411.417,386.494 411.917,387.494 412,389.5C 416,385.5 420,381.5 424,377.5C 424.333,378.5 424.667,379.5 425,380.5C 428.667,376.833 432.333,373.167 436,369.5C 436.333,370.5 436.667,371.5 437,372.5C 441,368.5 445,364.5 449,360.5C 449.333,363.167 449.667,365.833 450,368.5C 453.667,364.833 457.333,361.167 461,357.5C 461.333,358.5 461.667,359.5 462,360.5C 466,356.5 470,352.5 474,348.5C 474.333,349.5 474.667,350.5 475,351.5C 478.667,347.833 482.333,344.167 486,340.5C 486.333,341.833 486.667,343.167 487,344.5C 488.764,342.611 490.264,340.611 491.5,338.5 Z"/></g>
<g><path style="opacity:0.997" fill="#11b6ef" d="M 148.5,342.5 C 154.158,349.825 160.492,356.491 167.5,362.5C 168.211,364.03 169.211,365.363 170.5,366.5C 170.173,408.239 170.506,449.906 171.5,491.5C 162.674,488.787 154.341,485.12 146.5,480.5C 147.167,434.5 147.833,388.5 148.5,342.5 Z"/></g>
<g><path style="opacity:0.999" fill="#0098d7" d="M 480.5,364.5 C 478.26,370.65 475.26,376.316 471.5,381.5C 468.203,384.296 465.036,387.296 462,390.5C 461.667,388.167 461.333,385.833 461,383.5C 457.333,387.167 453.667,390.833 450,394.5C 449.667,393.167 449.333,391.833 449,390.5C 445,394.5 441,398.5 437,402.5C 436.667,401.5 436.333,400.5 436,399.5C 432.333,403.167 428.667,406.833 425,410.5C 424.667,409.5 424.333,408.5 424,407.5C 420,411.5 416,415.5 412,419.5C 411.667,418.167 411.333,416.833 411,415.5C 407.333,419.167 403.667,422.833 400,426.5C 399.667,425.5 399.333,424.5 399,423.5C 395,427.5 391,431.5 387,435.5C 386.667,434.5 386.333,433.5 386,432.5C 382.333,436.167 378.667,439.833 375,443.5C 374.667,442.167 374.333,440.833 374,439.5C 370,443.5 366,447.5 362,451.5C 361.667,450.5 361.333,449.5 361,448.5C 357.631,452.037 354.131,455.371 350.5,458.5C 350.649,457.448 350.483,456.448 350,455.5C 347,458.5 344,461.5 341,464.5C 340.667,463.5 340.333,462.5 340,461.5C 337,464.5 334,467.5 331,470.5C 330.667,467.833 330.333,465.167 330,462.5C 327,465.5 324,468.5 321,471.5C 320.667,470.5 320.333,469.5 320,468.5C 317,471.5 314,474.5 311,477.5C 310.667,476.167 310.333,474.833 310,473.5C 307,476.5 304,479.5 301,482.5C 300.667,480.167 300.333,477.833 300,475.5C 297,478.5 294,481.5 291,484.5C 290.667,483.167 290.333,481.833 290,480.5C 289.292,481.381 288.458,482.047 287.5,482.5C 284.167,479.833 281.167,476.833 278.5,473.5C 280.795,470.703 283.295,468.036 286,465.5C 286.333,467.5 286.667,469.5 287,471.5C 291,467.5 295,463.5 299,459.5C 299.333,460.5 299.667,461.5 300,462.5C 303.667,458.833 307.333,455.167 311,451.5C 311.333,452.5 311.667,453.5 312,454.5C 316,450.5 320,446.5 324,442.5C 324.333,443.5 324.667,444.5 325,445.5C 328.667,441.833 332.333,438.167 336,434.5C 336.333,435.833 336.667,437.167 337,438.5C 341,434.5 345,430.5 349,426.5C 349.333,427.5 349.667,428.5 350,429.5C 353.667,425.833 357.333,422.167 361,418.5C 361.333,419.5 361.667,420.5 362,421.5C 366,417.5 370,413.5 374,409.5C 374.333,410.833 374.667,412.167 375,413.5C 378.667,409.833 382.333,406.167 386,402.5C 386.333,403.5 386.667,404.5 387,405.5C 388.376,404.295 389.542,402.962 390.5,401.5C 393.797,398.704 396.964,395.704 400,392.5C 400.333,393.5 400.667,394.5 401,395.5C 404.036,392.296 407.203,389.296 410.5,386.5C 410.336,389.187 410.503,391.854 411,394.5C 414,391.5 417,388.5 420,385.5C 420.333,386.5 420.667,387.5 421,388.5C 424,385.5 427,382.5 430,379.5C 430.333,382.167 430.667,384.833 431,387.5C 434,384.5 437,381.5 440,378.5C 440.333,379.5 440.667,380.5 441,381.5C 444,378.5 447,375.5 450,372.5C 450.333,375.167 450.667,377.833 451,380.5C 454,377.5 457,374.5 460,371.5C 460.333,373.833 460.667,376.167 461,378.5C 464,375.5 467,372.5 470,369.5C 470.333,370.833 470.667,372.167 471,373.5C 474.036,370.296 477.203,367.296 480.5,364.5 Z"/></g>
<g><path style="opacity:0.997" fill="#0ab3ef" d="M 170.5,366.5 C 186.5,381.833 202.167,397.5 217.5,413.5C 217.831,443.338 217.498,473.005 216.5,502.5C 201.059,500.556 186.059,496.89 171.5,491.5C 170.506,449.906 170.173,408.239 170.5,366.5 Z"/></g>
<g><path style="opacity:0.988" fill="#009adc" d="M 471.5,381.5 C 457.251,407.758 438.251,430.092 414.5,448.5C 414.062,448.565 413.728,448.399 413.5,448C 415.667,445.833 417.833,443.667 420,441.5C 420.667,438.5 420.667,435.5 420,432.5C 417,435.5 414,438.5 411,441.5C 410.667,439.167 410.333,436.833 410,434.5C 407,437.5 404,440.5 401,443.5C 400.667,442.167 400.333,440.833 400,439.5C 397,442.5 394,445.5 391,448.5C 390.667,446.167 390.333,443.833 390,441.5C 387,444.5 384,447.5 381,450.5C 380.667,449.167 380.333,447.833 380,446.5C 377,449.5 374,452.5 371,455.5C 370.667,453.167 370.333,450.833 370,448.5C 367,451.5 364,454.5 361,457.5C 360.667,456.167 360.333,454.833 360,453.5C 357,456.5 354,459.5 351,462.5C 350.51,461.207 350.343,459.873 350.5,458.5C 354.131,455.371 357.631,452.037 361,448.5C 361.333,449.5 361.667,450.5 362,451.5C 366,447.5 370,443.5 374,439.5C 374.333,440.833 374.667,442.167 375,443.5C 378.667,439.833 382.333,436.167 386,432.5C 386.333,433.5 386.667,434.5 387,435.5C 391,431.5 395,427.5 399,423.5C 399.333,424.5 399.667,425.5 400,426.5C 403.667,422.833 407.333,419.167 411,415.5C 411.333,416.833 411.667,418.167 412,419.5C 416,415.5 420,411.5 424,407.5C 424.333,408.5 424.667,409.5 425,410.5C 428.667,406.833 432.333,403.167 436,399.5C 436.333,400.5 436.667,401.5 437,402.5C 441,398.5 445,394.5 449,390.5C 449.333,391.833 449.667,393.167 450,394.5C 453.667,390.833 457.333,387.167 461,383.5C 461.333,385.833 461.667,388.167 462,390.5C 465.036,387.296 468.203,384.296 471.5,381.5 Z"/></g>
<g><path style="opacity:1" fill="#0590c5" d="M 320.5,379.5 C 320.5,380.833 320.5,382.167 320.5,383.5C 317.871,386.631 315.038,389.631 312,392.5C 311.667,391.167 311.333,389.833 311,388.5C 307.333,392.167 303.667,395.833 300,399.5C 299.667,398.5 299.333,397.5 299,396.5C 295,400.5 291,404.5 287,408.5C 286.667,407.5 286.333,406.5 286,405.5C 282.333,409.167 278.667,412.833 275,416.5C 274.667,415.5 274.333,414.5 274,413.5C 270,417.5 266,421.5 262,425.5C 261.667,424.167 261.333,422.833 261,421.5C 255.298,427.37 249.465,433.036 243.5,438.5C 238.833,434.5 234.5,430.167 230.5,425.5C 240.798,415.702 250.965,405.702 261,395.5C 261.333,396.833 261.667,398.167 262,399.5C 264.04,397.63 265.873,395.63 267.5,393.5C 285.948,391.805 303.614,387.138 320.5,379.5 Z"/></g>
<g><path style="opacity:1" fill="#088cbc" d="M 167.5,362.5 C 196.941,384.866 230.275,395.199 267.5,393.5C 265.873,395.63 264.04,397.63 262,399.5C 261.667,398.167 261.333,396.833 261,395.5C 250.965,405.702 240.798,415.702 230.5,425.5C 226.167,421.5 221.833,417.5 217.5,413.5C 202.167,397.5 186.5,381.833 170.5,366.5C 169.211,365.363 168.211,364.03 167.5,362.5 Z"/></g>
<g><path style="opacity:1" fill="#0097d1" d="M 390.5,401.5 C 389.542,402.962 388.376,404.295 387,405.5C 386.667,404.5 386.333,403.5 386,402.5C 382.333,406.167 378.667,409.833 375,413.5C 374.667,412.167 374.333,410.833 374,409.5C 370,413.5 366,417.5 362,421.5C 361.667,420.5 361.333,419.5 361,418.5C 357.333,422.167 353.667,425.833 350,429.5C 349.667,428.5 349.333,427.5 349,426.5C 345,430.5 341,434.5 337,438.5C 336.667,437.167 336.333,435.833 336,434.5C 332.333,438.167 328.667,441.833 325,445.5C 324.667,444.5 324.333,443.5 324,442.5C 320,446.5 316,450.5 312,454.5C 311.667,453.5 311.333,452.5 311,451.5C 307.333,455.167 303.667,458.833 300,462.5C 299.667,461.5 299.333,460.5 299,459.5C 295,463.5 291,467.5 287,471.5C 286.667,469.5 286.333,467.5 286,465.5C 283.295,468.036 280.795,470.703 278.5,473.5C 270.833,466.5 263.5,459.167 256.5,451.5C 257.794,450.71 258.961,449.71 260,448.5C 260.333,449.5 260.667,450.5 261,451.5C 264,448.5 267,445.5 270,442.5C 270.333,443.833 270.667,445.167 271,446.5C 274,443.5 277,440.5 280,437.5C 280.333,438.5 280.667,439.5 281,440.5C 284,437.5 287,434.5 290,431.5C 290.333,434.167 290.667,436.833 291,439.5C 294,436.5 297,433.5 300,430.5C 300.333,431.5 300.667,432.5 301,433.5C 304.036,430.296 307.203,427.296 310.5,424.5C 310.351,425.552 310.517,426.552 311,427.5C 314,424.5 317,421.5 320,418.5C 320.333,421.167 320.667,423.833 321,426.5C 324,423.5 327,420.5 330,417.5C 330.333,418.5 330.667,419.5 331,420.5C 334,417.5 337,414.5 340,411.5C 340.333,414.833 340.667,418.167 341,421.5C 344,418.5 347,415.5 350,412.5C 350.333,413.5 350.667,414.5 351,415.5C 354,412.5 357,409.5 360,406.5C 360.333,407.5 360.667,408.5 361,409.5C 364,406.5 367,403.5 370,400.5C 370.333,403.167 370.667,405.833 371,408.5C 374,405.5 377,402.5 380,399.5C 380.333,400.5 380.667,401.5 381,402.5C 384,399.5 387,396.5 390,393.5C 390.497,396.146 390.664,398.813 390.5,401.5 Z"/></g>
<g><path style="opacity:0.996" fill="#03b0ee" d="M 217.5,413.5 C 221.833,417.5 226.167,421.5 230.5,425.5C 234.5,430.167 238.833,434.5 243.5,438.5C 245.5,440.833 247.5,443.167 249.5,445.5C 249.5,465.5 249.5,485.5 249.5,505.5C 238.243,505.74 227.243,504.74 216.5,502.5C 217.498,473.005 217.831,443.338 217.5,413.5 Z"/></g>
<g><path style="opacity:0.997" fill="#009edd" d="M 414.5,448.5 C 382.835,475.162 346.502,492.495 305.5,500.5C 299.167,494.833 293.167,488.833 287.5,482.5C 288.458,482.047 289.292,481.381 290,480.5C 290.333,481.833 290.667,483.167 291,484.5C 294,481.5 297,478.5 300,475.5C 300.333,477.833 300.667,480.167 301,482.5C 304,479.5 307,476.5 310,473.5C 310.333,474.833 310.667,476.167 311,477.5C 314,474.5 317,471.5 320,468.5C 320.333,469.5 320.667,470.5 321,471.5C 324,468.5 327,465.5 330,462.5C 330.333,465.167 330.667,467.833 331,470.5C 334,467.5 337,464.5 340,461.5C 340.333,462.5 340.667,463.5 341,464.5C 344,461.5 347,458.5 350,455.5C 350.483,456.448 350.649,457.448 350.5,458.5C 350.343,459.873 350.51,461.207 351,462.5C 354,459.5 357,456.5 360,453.5C 360.333,454.833 360.667,456.167 361,457.5C 364,454.5 367,451.5 370,448.5C 370.333,450.833 370.667,453.167 371,455.5C 374,452.5 377,449.5 380,446.5C 380.333,447.833 380.667,449.167 381,450.5C 384,447.5 387,444.5 390,441.5C 390.333,443.833 390.667,446.167 391,448.5C 394,445.5 397,442.5 400,439.5C 400.333,440.833 400.667,442.167 401,443.5C 404,440.5 407,437.5 410,434.5C 410.333,436.833 410.667,439.167 411,441.5C 414,438.5 417,435.5 420,432.5C 420.667,435.5 420.667,438.5 420,441.5C 417.833,443.667 415.667,445.833 413.5,448C 413.728,448.399 414.062,448.565 414.5,448.5 Z"/></g>
<g><path style="opacity:0.985" fill="#00acec" d="M 249.5,445.5 C 251.833,447.5 254.167,449.5 256.5,451.5C 263.5,459.167 270.833,466.5 278.5,473.5C 281.167,476.833 284.167,479.833 287.5,482.5C 293.167,488.833 299.167,494.833 305.5,500.5C 287.215,504.794 268.549,506.46 249.5,505.5C 249.5,485.5 249.5,465.5 249.5,445.5 Z"/></g>
</svg>