<svg xmlns="http://www.w3.org/2000/svg" version="1.1" width="512px" height="512px" style="shape-rendering:geometricPrecision; text-rendering:geometricPrecision; image-rendering:optimizeQuality; fill-rule:evenodd; clip-rule:evenodd" xmlns:xlink="http://www.w3.org/1999/xlink">
<g><path style="opacity:0.962" fill="#7a7bb0" d="M 91.5,8.5 C 116.99,7.54302 142.323,9.04302 167.5,13C 183.669,16.0922 199.003,21.4255 213.5,29C 215.357,30.1824 216.357,31.849 216.5,34C 215.533,52.1429 215.199,70.3096 215.5,88.5C 267.168,88.3333 318.834,88.5 370.5,89C 389.445,91.2799 400.612,101.78 404,120.5C 404.5,134.496 404.667,148.496 404.5,162.5C 437.933,161.403 469.6,168.236 499.5,183C 500,183.5 500.5,184 501,184.5C 501.667,229.167 501.667,273.833 501,318.5C 495.351,323.782 488.851,327.948 481.5,331C 456.865,341.227 431.198,346.394 404.5,346.5C 404.92,362.216 404.42,377.883 403,393.5C 397.356,409.796 385.856,418.629 368.5,420C 317.834,420.5 267.168,420.667 216.5,420.5C 216.974,438.927 216.474,457.26 215,475.5C 202.126,484.686 187.959,491.186 172.5,495C 123.008,507.734 74.6742,504.401 27.5,485C 21.5768,482.124 16.0768,478.624 11,474.5C 9.45135,429.799 9.11802,385.132 10,340.5C 14.7971,336.183 20.2971,333.016 26.5,331C 52.393,322.086 79.0597,317.586 106.5,317.5C 106.5,276.167 106.5,234.833 106.5,193.5C 75.7244,193.38 46.7244,186.213 19.5,172C 16.5767,169.955 13.7433,167.788 11,165.5C 10.8071,143.313 10.3071,121.147 9.5,99C 10.8333,77.6667 10.8333,56.3333 9.5,35C 9.62515,33.3732 10.1251,31.8732 11,30.5C 22.6074,23.2829 35.1074,18.1162 48.5,15C 62.8456,11.928 77.1789,9.76134 91.5,8.5 Z M 215.5,100.5 C 269.226,100.013 322.893,100.513 376.5,102C 384.52,105.351 389.687,111.184 392,119.5C 392.5,134.163 392.667,148.83 392.5,163.5C 359.158,162.135 327.491,168.635 297.5,183C 296.874,183.75 296.374,184.584 296,185.5C 295.5,206.497 295.333,227.497 295.5,248.5C 236.5,248.5 177.5,248.5 118.5,248.5C 118.5,230.167 118.5,211.833 118.5,193.5C 143.658,192.752 167.991,187.919 191.5,179C 199.153,175.508 206.487,171.508 213.5,167C 214.126,166.25 214.626,165.416 215,164.5C 215.5,143.169 215.667,121.836 215.5,100.5 Z M 118.5,260.5 C 177.5,260.5 236.5,260.5 295.5,260.5C 295.333,279.836 295.5,299.17 296,318.5C 307.856,327.511 321.023,334.011 335.5,338C 354.124,343.399 373.124,346.232 392.5,346.5C 392.667,360.837 392.5,375.171 392,389.5C 389.659,397.841 384.493,403.674 376.5,407C 323.213,408.483 269.879,408.983 216.5,408.5C 216.667,386.164 216.5,363.831 216,341.5C 215.535,340.069 214.701,338.903 213.5,338C 194.365,328.131 174.032,322.131 152.5,320C 141.185,318.874 129.852,318.04 118.5,317.5C 118.5,298.5 118.5,279.5 118.5,260.5 Z"/></g>
<g><path style="opacity:1" fill="#c8f3c1" d="M 93.5,19.5 C 114.216,19.1823 134.883,20.0157 155.5,22C 170.581,24.0181 184.915,28.3514 198.5,35C 181.226,43.9049 162.893,49.5716 143.5,52C 112.309,55.866 81.642,53.5326 51.5,45C 43.1183,42.3077 35.1183,38.8077 27.5,34.5C 36.9349,29.521 46.9349,26.021 57.5,24C 69.5822,21.9823 81.5822,20.4823 93.5,19.5 Z"/></g>
<g><path style="opacity:1" fill="#c8f3c1" d="M 66.5,60.5 C 63.6433,77.9002 57.6433,94.2335 48.5,109.5C 39.3453,106.59 30.6787,102.59 22.5,97.5C 21.3337,79.5093 21.167,61.5093 22,43.5C 36.2752,51.0844 51.1086,56.7511 66.5,60.5 Z"/></g>
<g><path style="opacity:1" fill="#b0efa8" d="M 48.5,109.5 C 57.6433,94.2335 63.6433,77.9002 66.5,60.5C 107.921,69.3855 148.588,66.5522 188.5,52C 193.865,49.9006 199.032,47.4006 204,44.5C 204.667,50.8333 204.667,57.1667 204,63.5C 191.185,72.8221 177.019,79.3221 161.5,83C 150.866,84.8834 140.199,86.5501 129.5,88C 126.833,91 126.833,94 129.5,97C 156.062,96.9789 180.729,90.1455 203.5,76.5C 204.833,83.1667 204.833,89.8333 203.5,96.5C 185.319,107.395 165.652,114.228 144.5,117C 125.188,118.474 105.855,118.807 86.5,118C 73.4921,116.499 60.8254,113.666 48.5,109.5 Z"/></g>
<g><path style="opacity:1" fill="#7c7fb1" d="M 38.5,74.5 C 43.6169,74.5684 48.1169,76.2351 52,79.5C 53.2673,83.731 51.7673,86.3977 47.5,87.5C 44.633,86.2259 41.633,85.3925 38.5,85C 34.5093,81.3302 34.5093,77.8302 38.5,74.5 Z"/></g>
<g><path style="opacity:1" fill="#7a7db0" d="M 66.5,83.5 C 72.4543,83.2431 77.9543,84.5765 83,87.5C 84.6513,92.1407 83.1513,94.8074 78.5,95.5C 74.4161,94.8124 70.4161,93.8124 66.5,92.5C 63.8449,89.4661 63.8449,86.4661 66.5,83.5 Z"/></g>
<g><path style="opacity:1" fill="#7a7db0" d="M 98.5,87.5 C 102.846,87.3343 107.179,87.501 111.5,88C 115.5,91 115.5,94 111.5,97C 107.167,97.6667 102.833,97.6667 98.5,97C 94.5808,93.8397 94.5808,90.673 98.5,87.5 Z"/></g>
<g><path style="opacity:1" fill="#c7f3c1" d="M 41.5,118.5 C 36.2103,126.79 29.5437,133.79 21.5,139.5C 21.1681,129.478 21.5015,119.478 22.5,109.5C 28.8032,112.821 35.1366,115.821 41.5,118.5 Z"/></g>
<g><path style="opacity:1" fill="#b0efa8" d="M 170.5,158.5 C 171.239,158.369 171.906,158.536 172.5,159C 161.167,168.85 148.501,176.35 134.5,181.5C 104.172,184.445 74.5058,181.278 45.5,172C 37.2756,169.221 29.6089,165.388 22.5,160.5C 21.503,153.532 21.1697,146.532 21.5,139.5C 29.5437,133.79 36.2103,126.79 41.5,118.5C 52.7506,121.65 64.0839,124.484 75.5,127C 96.8095,128.528 118.143,128.861 139.5,128C 162.195,125.811 183.528,119.311 203.5,108.5C 204.665,115.811 204.831,123.144 204,130.5C 181.813,145.339 157.313,153.172 130.5,154C 127.71,156.21 126.877,159.044 128,162.5C 129.648,164.028 131.648,164.695 134,164.5C 146.308,163.195 158.474,161.195 170.5,158.5 Z"/></g>
<g><path style="opacity:1" fill="#7b7fb0" d="M 39.5,141.5 C 44.1706,142.036 48.3373,143.703 52,146.5C 53.2673,150.731 51.7673,153.398 47.5,154.5C 44.8029,153.768 42.1362,152.934 39.5,152C 35.5093,148.33 35.5093,144.83 39.5,141.5 Z"/></g>
<g><path style="opacity:1" fill="#a4dd9c" d="M 134.5,181.5 C 148.501,176.35 161.167,168.85 172.5,159C 171.906,158.536 171.239,158.369 170.5,158.5C 182.021,154.872 193.021,149.872 203.5,143.5C 204.663,148.802 204.829,154.136 204,159.5C 190.864,167.661 176.697,173.495 161.5,177C 152.476,178.455 143.476,179.955 134.5,181.5 Z"/></g>
<g><path style="opacity:1" fill="#797cb0" d="M 66.5,150.5 C 71.5658,150.34 76.5658,150.84 81.5,152C 83.4439,154.153 83.9439,156.653 83,159.5C 81.5618,160.718 79.8951,161.385 78,161.5C 74.1294,160.954 70.296,160.288 66.5,159.5C 63.8449,156.466 63.8449,153.466 66.5,150.5 Z"/></g>
<g><path style="opacity:1" fill="#7a7db0" d="M 98.5,154.5 C 102.846,154.334 107.179,154.501 111.5,155C 115.482,157.952 115.482,160.952 111.5,164C 107.167,164.667 102.833,164.667 98.5,164C 94.5993,160.792 94.5993,157.626 98.5,154.5 Z"/></g>
<g><path style="opacity:1" fill="#fdb5b5" d="M 367.5,174.5 C 391.525,174.121 415.525,174.621 439.5,176C 455.103,177.094 469.77,181.26 483.5,188.5C 471.311,195.398 458.311,200.231 444.5,203C 404.388,211.136 365.055,208.469 326.5,195C 321.734,193.416 317.4,191.083 313.5,188C 319.264,185.078 325.264,182.745 331.5,181C 343.496,178.058 355.496,175.891 367.5,174.5 Z"/></g>
<g><path style="opacity:1" fill="#fdb5b5" d="M 349.5,213.5 C 346.653,230.885 340.653,247.219 331.5,262.5C 322.884,259.442 314.717,255.442 307,250.5C 306.167,232.824 306.334,215.157 307.5,197.5C 321.143,204.262 335.143,209.596 349.5,213.5 Z"/></g>
<g><path style="opacity:1" fill="#fd9697" d="M 331.5,262.5 C 340.653,247.219 346.653,230.885 349.5,213.5C 391.475,222.192 432.808,219.692 473.5,206C 478.985,203.757 484.318,201.257 489.5,198.5C 490.664,204.807 490.831,211.141 490,217.5C 467.787,232.184 443.287,240.017 416.5,241C 411.893,246.14 412.893,249.64 419.5,251.5C 444.46,249.762 467.794,242.762 489.5,230.5C 490.833,236.833 490.833,243.167 489.5,249.5C 475.279,258.299 459.946,264.466 443.5,268C 405.63,275.458 368.296,273.624 331.5,262.5 Z"/></g>
<g><path style="opacity:1" fill="#7d7cb1" d="M 323.5,228.5 C 328.376,228.738 332.876,230.072 337,232.5C 338.757,237.485 337.09,240.151 332,240.5C 328.988,240.274 326.155,239.441 323.5,238C 320.888,234.836 320.888,231.669 323.5,228.5 Z"/></g>
<g><path style="opacity:1" fill="#817caf" d="M 353.5,236.5 C 358.19,237.138 362.856,237.971 367.5,239C 372.107,244.14 371.107,247.64 364.5,249.5C 360.314,248.954 356.314,247.787 352.5,246C 349.675,242.476 350.008,239.31 353.5,236.5 Z"/></g>
<g><path style="opacity:1" fill="#827caf" d="M 384.5,240.5 C 388.514,240.334 392.514,240.501 396.5,241C 400.5,244.333 400.5,247.667 396.5,251C 392.167,251.667 387.833,251.667 383.5,251C 379.442,247.027 379.776,243.527 384.5,240.5 Z"/></g>
<g><path style="opacity:1" fill="#fd9697" d="M 451.5,313.5 C 452.552,313.351 453.552,313.517 454.5,314C 444.02,322.905 432.353,329.738 419.5,334.5C 379.739,339.512 342.239,332.512 307,313.5C 306.5,305.841 306.334,298.174 306.5,290.5C 313.203,284.798 319.203,278.464 324.5,271.5C 356.04,281.747 388.373,285.247 421.5,282C 445.82,279.911 468.654,273.078 490,261.5C 490.667,269.167 490.667,276.833 490,284.5C 467.694,298.934 443.194,306.768 416.5,308C 411.995,312.814 412.829,316.314 419,318.5C 429.92,317.25 440.753,315.583 451.5,313.5 Z"/></g>
<g><path style="opacity:1" fill="#fbb4b5" d="M 324.5,271.5 C 319.203,278.464 313.203,284.798 306.5,290.5C 306.334,281.161 306.5,271.827 307,262.5C 312.847,265.673 318.681,268.673 324.5,271.5 Z"/></g>
<g><path style="opacity:1" fill="#7c7bb0" d="M 323.5,295.5 C 328.486,295.33 332.986,296.663 337,299.5C 338.651,304.141 337.151,306.807 332.5,307.5C 329.419,306.973 326.419,306.14 323.5,305C 320.875,301.763 320.875,298.596 323.5,295.5 Z"/></g>
<g><path style="opacity:1" fill="#eb8b8c" d="M 419.5,334.5 C 432.353,329.738 444.02,322.905 454.5,314C 453.552,313.517 452.552,313.351 451.5,313.5C 464.778,309.868 477.445,304.535 489.5,297.5C 490.663,302.802 490.829,308.136 490,313.5C 468.192,325.996 444.692,332.996 419.5,334.5 Z"/></g>
<g><path style="opacity:1" fill="#7f7caf" d="M 353.5,303.5 C 358.154,304.329 362.82,305.163 367.5,306C 371.963,311.256 370.797,314.756 364,316.5C 360.089,315.564 356.255,314.398 352.5,313C 349.675,309.476 350.008,306.31 353.5,303.5 Z"/></g>
<g><path style="opacity:1" fill="#817caf" d="M 384.5,307.5 C 388.514,307.334 392.514,307.501 396.5,308C 400.5,311.333 400.5,314.667 396.5,318C 391.713,318.879 387.047,318.545 382.5,317C 379.743,313.107 380.409,309.94 384.5,307.5 Z"/></g>
<g><path style="opacity:1" fill="#e0cac7" d="M 89.5,328.5 C 119.84,327.271 149.84,329.771 179.5,336C 185.962,338.209 192.295,340.709 198.5,343.5C 180.426,353.288 161.092,359.121 140.5,361C 105.123,365.699 70.7896,361.699 37.5,349C 34.0061,347.421 30.6728,345.587 27.5,343.5C 34.3079,339.614 41.6413,336.781 49.5,335C 62.85,332.092 76.1834,329.925 89.5,328.5 Z"/></g>
<g><path style="opacity:1" fill="#e1cac7" d="M 65.5,368.5 C 65.2112,374.568 64.3778,380.568 63,386.5C 59.1668,397.181 54.6668,407.514 49.5,417.5C 39.8009,415.046 30.8009,411.046 22.5,405.5C 21.1667,388.167 21.1667,370.833 22.5,353.5C 36.1018,360.7 50.4351,365.7 65.5,368.5 Z"/></g>
<g><path style="opacity:1" fill="#d4b4b0" d="M 49.5,417.5 C 54.6668,407.514 59.1668,397.181 63,386.5C 64.3778,380.568 65.2112,374.568 65.5,368.5C 110.674,378.203 154.674,374.37 197.5,357C 200.249,355.877 202.749,354.377 205,352.5C 205.667,358.5 205.667,364.5 205,370.5C 182.146,385.511 156.979,393.678 129.5,395C 125.757,402.616 128.257,405.782 137,404.5C 161.538,402.765 184.204,395.431 205,382.5C 205.667,389.5 205.667,396.5 205,403.5C 183.441,416.851 159.941,424.351 134.5,426C 115.475,426.84 96.4755,426.507 77.5,425C 67.6964,423.682 58.363,421.182 49.5,417.5 Z"/></g>
<g><path style="opacity:1" fill="#7b7db1" d="M 38.5,382.5 C 42.687,382.395 46.687,383.228 50.5,385C 52.7064,387.209 53.0398,389.709 51.5,392.5C 50.3122,393.84 48.8122,394.507 47,394.5C 43.616,393.928 40.4493,392.761 37.5,391C 36.0406,387.929 36.3739,385.096 38.5,382.5 Z"/></g>
<g><path style="opacity:1" fill="#7b7cb0" d="M 66.5,390.5 C 71.5687,390.85 76.5687,391.683 81.5,393C 86.0801,398.161 84.9134,401.328 78,402.5C 74.1175,401.904 70.2842,401.071 66.5,400C 63.8881,396.836 63.8881,393.669 66.5,390.5 Z"/></g>
<g><path style="opacity:1" fill="#7b7cb0" d="M 98.5,394.5 C 102.846,394.334 107.179,394.501 111.5,395C 114.791,397.332 115.291,400.165 113,403.5C 107.918,404.637 102.751,404.804 97.5,404C 94.6749,400.476 95.0082,397.31 98.5,394.5 Z"/></g>
<g><path style="opacity:1" fill="#d4b4af" d="M 171.5,465.5 C 172.239,465.369 172.906,465.536 173.5,466C 170.312,468.432 167.312,471.099 164.5,474C 154.856,480.318 144.856,485.818 134.5,490.5C 104.456,493.81 75.1231,490.643 46.5,481C 38.1041,477.969 30.1041,474.135 22.5,469.5C 21.503,462.532 21.1697,455.532 21.5,448.5C 29.5272,442.473 36.5272,435.473 42.5,427.5C 82.7294,439.07 123.396,440.57 164.5,432C 178.49,428.504 191.824,423.337 204.5,416.5C 205.833,423.5 205.833,430.5 204.5,437.5C 181.837,452.554 156.837,460.721 129.5,462C 125.607,468.469 127.441,471.635 135,471.5C 147.294,470.234 159.46,468.234 171.5,465.5 Z"/></g>
<g><path style="opacity:1" fill="#e1cac7" d="M 42.5,427.5 C 36.5272,435.473 29.5272,442.473 21.5,448.5C 21.3335,438.161 21.5002,427.828 22,417.5C 28.8759,420.946 35.7092,424.28 42.5,427.5 Z"/></g>
<g><path style="opacity:1" fill="#7c7db0" d="M 39.5,448.5 C 43.3246,449.074 46.9913,450.241 50.5,452C 53.6994,456.507 52.6994,459.674 47.5,461.5C 44.4317,460.699 41.4317,459.699 38.5,458.5C 35.6964,454.852 36.0298,451.518 39.5,448.5 Z"/></g>
<g><path style="opacity:1" fill="#c5a7a4" d="M 134.5,490.5 C 144.856,485.818 154.856,480.318 164.5,474C 167.312,471.099 170.312,468.432 173.5,466C 172.906,465.536 172.239,465.369 171.5,465.5C 183.295,461.616 194.462,456.283 205,449.5C 205.831,456.192 205.664,462.858 204.5,469.5C 182.77,481.743 159.436,488.743 134.5,490.5 Z"/></g>
<g><path style="opacity:1" fill="#7c7cb0" d="M 66.5,457.5 C 71.5687,457.85 76.5687,458.683 81.5,460C 86.1574,465.499 84.824,468.666 77.5,469.5C 73.6124,469.278 69.9458,468.278 66.5,466.5C 63.8449,463.466 63.8449,460.466 66.5,457.5 Z"/></g>
<g><path style="opacity:1" fill="#7a7cb0" d="M 98.5,461.5 C 102.846,461.334 107.179,461.501 111.5,462C 115.482,465.048 115.482,468.048 111.5,471C 107.167,471.667 102.833,471.667 98.5,471C 94.5622,467.887 94.5622,464.72 98.5,461.5 Z"/></g>
</svg>