<svg xmlns="http://www.w3.org/2000/svg" version="1.1" width="512px" height="512px" style="shape-rendering:geometricPrecision; text-rendering:geometricPrecision; image-rendering:optimizeQuality; fill-rule:evenodd; clip-rule:evenodd" xmlns:xlink="http://www.w3.org/1999/xlink">
<g><path style="opacity:0.966" fill="#de8e2f" d="M 302.5,-0.5 C 303.5,-0.5 304.5,-0.5 305.5,-0.5C 318.469,21.9632 319.969,45.2966 310,69.5C 303.31,83.5553 294.643,96.2219 284,107.5C 264.031,125.801 244.364,144.468 225,163.5C 206.488,185.416 203.488,209.416 216,235.5C 224.307,252.147 235.307,266.813 249,279.5C 249.432,280.6 248.932,281.267 247.5,281.5C 227.192,271.034 210.025,256.7 196,238.5C 173.604,205.005 176.271,173.671 204,144.5C 223.576,126.253 243.742,108.753 264.5,92C 279.813,79.0375 291.647,63.5375 300,45.5C 304.99,30.4134 305.823,15.0801 302.5,-0.5 Z"/></g>
<g><path style="opacity:0.963" fill="#de8e2e" d="M 348.5,104.5 C 350.103,104.312 351.437,104.812 352.5,106C 328.827,117.915 308.994,134.415 293,155.5C 283.014,171.314 282.014,187.648 290,204.5C 296.254,215.34 302.254,226.34 308,237.5C 312.26,252.403 309.26,265.736 299,277.5C 293.096,284.074 286.596,289.908 279.5,295C 277.176,297.088 275.176,296.921 273.5,294.5C 283.847,282.118 286.013,268.451 280,253.5C 275.09,243.34 269.423,233.674 263,224.5C 250.352,200.445 252.019,177.445 268,155.5C 280.827,140.673 295.994,128.84 313.5,120C 325.06,114.324 336.727,109.158 348.5,104.5 Z"/></g>
<g><path style="opacity:0.961" fill="#427495" d="M 388.5,275.5 C 406.192,272.458 421.359,277.125 434,289.5C 444.095,305.009 443.762,320.342 433,335.5C 419.965,350.519 404.132,361.686 385.5,369C 378.409,371.697 371.242,374.197 364,376.5C 362.605,376.22 361.438,375.553 360.5,374.5C 377.183,365.659 392.016,354.325 405,340.5C 414.138,329.419 417.805,316.752 416,302.5C 409.727,286.113 397.893,279.113 380.5,281.5C 380.33,280.178 380.663,279.011 381.5,278C 384.004,277.302 386.337,276.469 388.5,275.5 Z"/></g>
<g><path style="opacity:0.967" fill="#427495" d="M 191.5,279.5 C 193.857,279.337 196.19,279.503 198.5,280C 198.957,280.414 199.291,280.914 199.5,281.5C 186.99,283.969 174.656,287.136 162.5,291C 158.136,292.512 154.47,295.012 151.5,298.5C 153.091,301.256 155.424,303.089 158.5,304C 176.49,309.041 194.823,312.041 213.5,313C 260.535,316.483 307.035,312.983 353,302.5C 358.396,305.114 363.563,308.114 368.5,311.5C 364.559,313.989 360.225,315.823 355.5,317C 312.829,327.723 269.495,332.056 225.5,330C 197.404,329.51 169.738,325.843 142.5,319C 109.233,308.063 109.566,297.73 143.5,288C 159.505,284.39 175.505,281.556 191.5,279.5 Z"/></g>
<g><path style="opacity:0.971" fill="#427495" d="M 173.5,340.5 C 175.288,340.215 176.955,340.548 178.5,341.5C 170.529,346.155 170.529,350.655 178.5,355C 192.456,359.613 206.79,362.28 221.5,363C 256.94,365.408 291.94,362.574 326.5,354.5C 333.451,357.642 340.117,361.309 346.5,365.5C 345.221,367.146 343.555,368.313 341.5,369C 310.114,378.912 277.947,383.412 245,382.5C 213.767,383.512 183.267,379.345 153.5,370C 147.96,368.16 143.46,364.994 140,360.5C 139.333,358.5 139.333,356.5 140,354.5C 144.502,349.663 150.002,346.497 156.5,345C 162.332,343.627 167.998,342.127 173.5,340.5 Z"/></g>
<g><path style="opacity:0.976" fill="#427495" d="M 188.5,398.5 C 193.117,398.357 193.784,400.024 190.5,403.5C 191.313,404.814 192.313,405.981 193.5,407C 199.796,410.209 206.462,412.209 213.5,413C 242.342,416.473 271.009,415.307 299.5,409.5C 308.386,412.944 316.72,417.444 324.5,423C 308.151,431.088 290.818,435.755 272.5,437C 249.417,439.279 226.417,438.612 203.5,435C 190.732,433.145 178.732,429.145 167.5,423C 161.324,417.969 160.991,412.636 166.5,407C 173.602,403.249 180.935,400.416 188.5,398.5 Z"/></g>
<g><path style="opacity:0.971" fill="#427495" d="M 136.5,414.5 C 139.649,414.211 142.649,414.711 145.5,416C 135.44,419.021 125.774,423.021 116.5,428C 103.367,438.819 105.034,446.819 121.5,452C 145.559,459.945 170.225,464.945 195.5,467C 247.344,471.533 298.844,469.033 350,459.5C 364.826,456.893 378.66,451.726 391.5,444C 395.036,440.799 398.203,437.299 401,433.5C 407.69,438.283 409.024,444.283 405,451.5C 399.602,457.56 393.102,462.06 385.5,465C 351.735,476.073 317.068,482.406 281.5,484C 221.122,488.15 161.456,483.484 102.5,470C 91.0799,467.096 80.9132,461.93 72,454.5C 69.1719,450.698 68.8386,446.698 71,442.5C 77.1281,434.676 84.9615,429.176 94.5,426C 108.371,421.202 122.371,417.369 136.5,414.5 Z"/></g>
<g><path style="opacity:0.939" fill="#427495" d="M 284.5,511.5 C 262.5,511.5 240.5,511.5 218.5,511.5C 190.227,509.578 162.227,505.078 134.5,498C 133.167,497.333 133.167,496.667 134.5,496C 152.47,497.589 170.47,499.255 188.5,501C 243.951,504.878 298.951,501.544 353.5,491C 381.105,485.65 406.105,474.817 428.5,458.5C 427.764,465.471 424.764,471.304 419.5,476C 405.83,485.676 390.83,492.676 374.5,497C 344.814,504.691 314.814,509.524 284.5,511.5 Z"/></g>
</svg>